<?xml version="1.0" encoding="utf-8"?>
<!-- Generator: Adobe Illustrator 16.0.0, SVG Export Plug-In . SVG Version: 6.00 Build 0)  -->
<!DOCTYPE svg PUBLIC "-//W3C//DTD SVG 1.1//EN" "http://www.w3.org/Graphics/SVG/1.1/DTD/svg11.dtd">
<svg version="1.1" id="Layer_1" xmlns="http://www.w3.org/2000/svg" xmlns:xlink="http://www.w3.org/1999/xlink" x="0px" y="0px"
	 width="205.023px" height="94.294px" viewBox="0 0 205.023 94.294" enable-background="new 0 0 205.023 94.294"
	 xml:space="preserve">
<g>
	<g>
		<defs>
			<rect id="SVGID_1_" x="2.079" y="69.379" width="89.107" height="23.915"/>
		</defs>
		<defs>
			<path id="SVGID_2_" d="M84.051,72.884c0,1.934,1.598,3.504,3.568,3.504l0,0c1.973,0,3.567-1.571,3.567-3.504l0,0
				c0-1.938-1.595-3.505-3.567-3.505l0,0C85.648,69.379,84.051,70.947,84.051,72.884 M2.079,76.691c0,4.037,3.274,7.312,7.311,7.312
				l0,0c4.04,0,7.314-3.275,7.314-7.312l0,0c0-4.038-3.275-7.312-7.314-7.312l0,0C5.353,69.379,2.079,72.654,2.079,76.691
				 M18.711,83.104c0,3.708,2.922,6.715,6.528,6.715l0,0c3.607,0,6.529-3.007,6.529-6.715l0,0c0-3.709-2.922-6.715-6.529-6.715l0,0
				C21.633,76.389,18.711,79.395,18.711,83.104 M70.272,80.981c0,2.251,1.816,4.075,4.051,4.075l0,0
				c2.239,0,4.051-1.824,4.051-4.075l0,0c0-2.251-1.812-4.075-4.051-4.075l0,0C72.088,76.907,70.272,78.73,70.272,80.981
				 M54.677,85.057c0,2.754,2.274,4.982,5.08,4.982l0,0c2.806,0,5.076-2.228,5.076-4.982l0,0c0-2.753-2.27-4.981-5.076-4.981l0,0
				C56.952,80.076,54.677,82.303,54.677,85.057 M37.563,87.138c0,3.399,2.68,6.156,5.985,6.156l0,0c3.307,0,5.986-2.757,5.986-6.156
				l0,0c0-3.403-2.679-6.157-5.986-6.157l0,0C40.243,80.981,37.563,83.735,37.563,87.138"/>
		</defs>
		<clipPath id="SVGID_3_">
			<use xlink:href="#SVGID_1_"  overflow="visible"/>
		</clipPath>
		<clipPath id="SVGID_4_" clip-path="url(#SVGID_3_)">
			<use xlink:href="#SVGID_2_"  overflow="visible"/>
		</clipPath>
		<rect x="1.677" y="69.134" clip-path="url(#SVGID_4_)" fill="#0375AB" width="0.75" height="24.599"/>
		<rect x="2.428" y="69.134" clip-path="url(#SVGID_4_)" fill="#0076AC" width="0.347" height="24.599"/>
		<rect x="2.775" y="69.134" clip-path="url(#SVGID_4_)" fill="#0676AC" width="0.349" height="24.599"/>
		<rect x="3.124" y="69.134" clip-path="url(#SVGID_4_)" fill="#0577AC" width="0.348" height="24.599"/>
		<rect x="3.472" y="69.134" clip-path="url(#SVGID_4_)" fill="#0077AD" width="0.696" height="24.599"/>
		<rect x="4.168" y="69.134" clip-path="url(#SVGID_4_)" fill="#0978AD" width="0.347" height="24.599"/>
		<rect x="4.515" y="69.134" clip-path="url(#SVGID_4_)" fill="#0078AE" width="0.348" height="24.599"/>
		<rect x="4.863" y="69.134" clip-path="url(#SVGID_4_)" fill="#0D79AE" width="0.696" height="24.599"/>
		<rect x="5.56" y="69.134" clip-path="url(#SVGID_4_)" fill="#0279AF" width="0.349" height="24.599"/>
		<rect x="5.908" y="69.134" clip-path="url(#SVGID_4_)" fill="#107AAF" width="0.695" height="24.599"/>
		<rect x="6.604" y="69.134" clip-path="url(#SVGID_4_)" fill="#067AB0" width="0.349" height="24.599"/>
		<rect x="6.953" y="69.134" clip-path="url(#SVGID_4_)" fill="#047BB0" width="0.696" height="24.599"/>
		<rect x="7.648" y="69.134" clip-path="url(#SVGID_4_)" fill="#087CB1" width="1.044" height="24.599"/>
		<rect x="8.692" y="69.134" clip-path="url(#SVGID_4_)" fill="#0C7DB2" width="0.696" height="24.599"/>
		<rect x="9.389" y="69.134" clip-path="url(#SVGID_4_)" fill="#107EB3" width="1.392" height="24.599"/>
		<rect x="10.781" y="69.134" clip-path="url(#SVGID_4_)" fill="#137FB4" width="0.696" height="24.599"/>
		<rect x="11.477" y="69.134" clip-path="url(#SVGID_4_)" fill="#0480B4" width="0.697" height="24.599"/>
		<rect x="12.174" y="69.134" clip-path="url(#SVGID_4_)" fill="#0880B5" width="1.043" height="24.599"/>
		<rect x="13.217" y="69.134" clip-path="url(#SVGID_4_)" fill="#0C81B6" width="0.697" height="24.599"/>
		<rect x="13.914" y="69.134" clip-path="url(#SVGID_4_)" fill="#1782B6" width="0.347" height="24.599"/>
		<rect x="14.261" y="69.134" clip-path="url(#SVGID_4_)" fill="#1082B7" width="0.697" height="24.599"/>
		<rect x="14.958" y="69.134" clip-path="url(#SVGID_4_)" fill="#1983B7" width="0.348" height="24.599"/>
		<rect x="15.306" y="69.134" clip-path="url(#SVGID_4_)" fill="#1383B8" width="0.697" height="24.599"/>
		<rect x="16.002" y="69.134" clip-path="url(#SVGID_4_)" fill="#1B84B8" width="0.348" height="24.599"/>
		<rect x="16.351" y="69.134" clip-path="url(#SVGID_4_)" fill="#1584B9" width="0.348" height="24.599"/>
		<rect x="16.698" y="69.134" clip-path="url(#SVGID_4_)" fill="#1485B9" width="0.349" height="24.599"/>
		<rect x="17.047" y="69.134" clip-path="url(#SVGID_4_)" fill="#1E85B9" width="0.347" height="24.599"/>
		<rect x="17.395" y="69.134" clip-path="url(#SVGID_4_)" fill="#1885BB" width="0.348" height="24.599"/>
		<rect x="17.743" y="69.134" clip-path="url(#SVGID_4_)" fill="#1786BA" width="0.696" height="24.599"/>
		<rect x="18.438" y="69.134" clip-path="url(#SVGID_4_)" fill="#1A86BC" width="0.349" height="24.599"/>
		<rect x="18.788" y="69.134" clip-path="url(#SVGID_4_)" fill="#1987BB" width="0.695" height="24.599"/>
		<rect x="19.483" y="69.134" clip-path="url(#SVGID_4_)" fill="#1C88BC" width="1.045" height="24.599"/>
		<rect x="20.528" y="69.134" clip-path="url(#SVGID_4_)" fill="#1E89BD" width="0.695" height="24.599"/>
		<rect x="21.223" y="69.134" clip-path="url(#SVGID_4_)" fill="#208ABE" width="1.045" height="24.599"/>
		<rect x="22.268" y="69.134" clip-path="url(#SVGID_4_)" fill="#228BBF" width="1.392" height="24.599"/>
		<rect x="23.66" y="69.134" clip-path="url(#SVGID_4_)" fill="#288CBF" width="0.347" height="24.599"/>
		<rect x="24.007" y="69.134" clip-path="url(#SVGID_4_)" fill="#1C8DC0" width="0.349" height="24.599"/>
		<rect x="24.356" y="69.134" clip-path="url(#SVGID_4_)" fill="#288CBF" width="0.696" height="24.599"/>
		<rect x="25.052" y="69.134" clip-path="url(#SVGID_4_)" fill="#238EC0" width="0.697" height="24.599"/>
		<rect x="25.749" y="69.134" clip-path="url(#SVGID_4_)" fill="#258FC1" width="0.695" height="24.599"/>
		<rect x="26.444" y="69.134" clip-path="url(#SVGID_4_)" fill="#2B8EC1" width="0.349" height="24.599"/>
		<rect x="26.793" y="69.134" clip-path="url(#SVGID_4_)" fill="#2790C2" width="0.696" height="24.599"/>
		<rect x="27.489" y="69.134" clip-path="url(#SVGID_4_)" fill="#2D8FC2" width="0.347" height="24.599"/>
		<rect x="27.836" y="69.134" clip-path="url(#SVGID_4_)" fill="#2891C3" width="0.697" height="24.599"/>
		<rect x="28.534" y="69.134" clip-path="url(#SVGID_4_)" fill="#2A92C4" width="1.044" height="24.599"/>
		<rect x="29.578" y="69.134" clip-path="url(#SVGID_4_)" fill="#2C93C5" width="0.696" height="24.599"/>
		<rect x="30.273" y="69.134" clip-path="url(#SVGID_4_)" fill="#3194C4" width="0.348" height="24.599"/>
		<rect x="30.621" y="69.134" clip-path="url(#SVGID_4_)" fill="#2D94C6" width="0.697" height="24.599"/>
		<rect x="31.318" y="69.134" clip-path="url(#SVGID_4_)" fill="#2D95C6" width="0.347" height="24.599"/>
		<rect x="31.665" y="69.134" clip-path="url(#SVGID_4_)" fill="#2F95C7" width="0.697" height="24.599"/>
		<rect x="32.362" y="69.134" clip-path="url(#SVGID_4_)" fill="#3496C7" width="0.348" height="24.599"/>
		<rect x="32.71" y="69.134" clip-path="url(#SVGID_4_)" fill="#3196C8" width="0.348" height="24.599"/>
		<rect x="33.058" y="69.134" clip-path="url(#SVGID_4_)" fill="#3097C8" width="0.348" height="24.599"/>
		<rect x="33.406" y="69.134" clip-path="url(#SVGID_4_)" fill="#3597C8" width="0.348" height="24.599"/>
		<rect x="33.754" y="69.134" clip-path="url(#SVGID_4_)" fill="#3297C9" width="0.348" height="24.599"/>
		<rect x="34.102" y="69.134" clip-path="url(#SVGID_4_)" fill="#3298C9" width="0.696" height="24.599"/>
		<rect x="34.798" y="69.134" clip-path="url(#SVGID_4_)" fill="#3498CB" width="0.348" height="24.599"/>
		<rect x="35.146" y="69.134" clip-path="url(#SVGID_4_)" fill="#339ACA" width="0.349" height="24.599"/>
		<rect x="35.495" y="69.134" clip-path="url(#SVGID_4_)" fill="#3899CA" width="0.347" height="24.599"/>
		<rect x="35.842" y="69.134" clip-path="url(#SVGID_4_)" fill="#359BCB" width="1.044" height="24.599"/>
		<rect x="36.887" y="69.134" clip-path="url(#SVGID_4_)" fill="#369CCC" width="0.349" height="24.599"/>
		<rect x="37.235" y="69.134" clip-path="url(#SVGID_4_)" fill="#3B9BCC" width="0.347" height="24.599"/>
		<rect x="37.583" y="69.134" clip-path="url(#SVGID_4_)" fill="#369CCC" width="0.349" height="24.599"/>
		<rect x="37.932" y="69.134" clip-path="url(#SVGID_4_)" fill="#389DCD" width="1.391" height="24.599"/>
		<rect x="39.323" y="69.134" clip-path="url(#SVGID_4_)" fill="#3E9DCE" width="0.349" height="24.599"/>
		<rect x="39.672" y="69.134" clip-path="url(#SVGID_4_)" fill="#399ECE" width="0.695" height="24.599"/>
		<rect x="40.367" y="69.134" clip-path="url(#SVGID_4_)" fill="#3A9FCF" width="1.045" height="24.599"/>
		<rect x="41.412" y="69.134" clip-path="url(#SVGID_4_)" fill="#3CA0D0" width="0.697" height="24.599"/>
		<rect x="42.109" y="69.134" clip-path="url(#SVGID_4_)" fill="#40A1D0" width="0.347" height="24.599"/>
		<rect x="42.456" y="69.134" clip-path="url(#SVGID_4_)" fill="#3DA1D2" width="0.697" height="24.599"/>
		<rect x="43.153" y="69.134" clip-path="url(#SVGID_4_)" fill="#41A2D1" width="1.044" height="24.599"/>
		<rect x="44.197" y="69.134" clip-path="url(#SVGID_4_)" fill="#43A3D2" width="0.696" height="24.599"/>
		<rect x="44.893" y="69.134" clip-path="url(#SVGID_4_)" fill="#44A4D3" width="1.044" height="24.599"/>
		<rect x="45.937" y="69.134" clip-path="url(#SVGID_4_)" fill="#45A5D4" width="1.044" height="24.599"/>
		<rect x="46.981" y="69.134" clip-path="url(#SVGID_4_)" fill="#47A6D5" width="0.696" height="24.599"/>
		<rect x="47.677" y="69.134" clip-path="url(#SVGID_4_)" fill="#4BA7D5" width="0.348" height="24.599"/>
		<rect x="48.025" y="69.134" clip-path="url(#SVGID_4_)" fill="#48A7D6" width="0.696" height="24.599"/>
		<rect x="48.722" y="69.134" clip-path="url(#SVGID_4_)" fill="#4CA8D6" width="0.347" height="24.599"/>
		<rect x="49.069" y="69.134" clip-path="url(#SVGID_4_)" fill="#49A8D7" width="0.349" height="24.599"/>
		<rect x="49.417" y="69.134" clip-path="url(#SVGID_4_)" fill="#4DA9D7" width="0.696" height="24.599"/>
		<rect x="50.114" y="69.134" clip-path="url(#SVGID_4_)" fill="#4BA9D9" width="0.348" height="24.599"/>
		<rect x="50.462" y="69.134" clip-path="url(#SVGID_4_)" fill="#4EAAD8" width="0.696" height="24.599"/>
		<rect x="51.158" y="69.134" clip-path="url(#SVGID_4_)" fill="#4CAADA" width="0.348" height="24.599"/>
		<rect x="51.506" y="69.134" clip-path="url(#SVGID_4_)" fill="#50ABD9" width="0.696" height="24.599"/>
		<rect x="52.202" y="69.134" clip-path="url(#SVGID_4_)" fill="#51ACDA" width="1.044" height="24.599"/>
		<rect x="53.246" y="69.134" clip-path="url(#SVGID_4_)" fill="#52ADDB" width="0.696" height="24.599"/>
		<rect x="53.942" y="69.134" clip-path="url(#SVGID_4_)" fill="#4EAEDB" width="0.348" height="24.599"/>
		<rect x="54.291" y="69.134" clip-path="url(#SVGID_4_)" fill="#53AEDC" width="1.393" height="24.599"/>
		<rect x="55.683" y="69.134" clip-path="url(#SVGID_4_)" fill="#55AFDD" width="1.044" height="24.599"/>
		<rect x="56.728" y="69.134" clip-path="url(#SVGID_4_)" fill="#56B1DF" width="0.696" height="24.599"/>
		<rect x="57.423" y="69.134" clip-path="url(#SVGID_4_)" fill="#58B0DD" width="0.347" height="24.599"/>
		<rect x="57.771" y="69.134" clip-path="url(#SVGID_4_)" fill="#59B2DE" width="0.697" height="24.599"/>
		<rect x="58.468" y="69.134" clip-path="url(#SVGID_4_)" fill="#56B3DF" width="0.348" height="24.599"/>
		<rect x="58.815" y="69.134" clip-path="url(#SVGID_4_)" fill="#5AB3DF" width="0.697" height="24.599"/>
		<rect x="59.513" y="69.134" clip-path="url(#SVGID_4_)" fill="#5BB4E0" width="1.044" height="24.599"/>
		<rect x="60.557" y="69.134" clip-path="url(#SVGID_4_)" fill="#5DB5E1" width="0.696" height="24.599"/>
		<rect x="61.253" y="69.134" clip-path="url(#SVGID_4_)" fill="#5AB6E2" width="0.348" height="24.599"/>
		<rect x="61.601" y="69.134" clip-path="url(#SVGID_4_)" fill="#5EB6E2" width="0.696" height="24.599"/>
		<rect x="62.297" y="69.134" clip-path="url(#SVGID_4_)" fill="#5FB7E3" width="1.044" height="24.599"/>
		<rect x="63.341" y="69.134" clip-path="url(#SVGID_4_)" fill="#60B8E5" width="0.696" height="24.599"/>
		<rect x="64.037" y="69.134" clip-path="url(#SVGID_4_)" fill="#61B9E6" width="1.044" height="24.599"/>
		<rect x="65.081" y="69.134" clip-path="url(#SVGID_4_)" fill="#64BAE5" width="0.348" height="24.599"/>
		<rect x="65.429" y="69.134" clip-path="url(#SVGID_4_)" fill="#63BAE7" width="0.348" height="24.599"/>
		<rect x="65.777" y="69.134" clip-path="url(#SVGID_4_)" fill="#62BCE6" width="0.348" height="24.599"/>
		<rect x="66.125" y="69.134" clip-path="url(#SVGID_4_)" fill="#66BBE6" width="0.347" height="24.599"/>
		<rect x="66.473" y="69.134" clip-path="url(#SVGID_4_)" fill="#64BBE8" width="0.349" height="24.599"/>
		<rect x="66.821" y="69.134" clip-path="url(#SVGID_4_)" fill="#67BCE7" width="0.696" height="24.599"/>
		<rect x="67.518" y="69.134" clip-path="url(#SVGID_4_)" fill="#65BCE9" width="0.348" height="24.599"/>
		<rect x="67.866" y="69.134" clip-path="url(#SVGID_4_)" fill="#68BDE8" width="0.696" height="24.599"/>
		<rect x="68.562" y="69.134" clip-path="url(#SVGID_4_)" fill="#69BEE9" width="1.393" height="24.599"/>
		<rect x="69.955" y="69.134" clip-path="url(#SVGID_4_)" fill="#6ABFEB" width="0.695" height="24.599"/>
		<rect x="70.65" y="69.134" clip-path="url(#SVGID_4_)" fill="#6BC1EC" width="0.697" height="24.599"/>
		<rect x="71.347" y="69.134" clip-path="url(#SVGID_4_)" fill="#6DC0EA" width="0.348" height="24.599"/>
		<rect x="71.695" y="69.134" clip-path="url(#SVGID_4_)" fill="#6DC2ED" width="0.695" height="24.599"/>
		<rect x="72.39" y="69.134" clip-path="url(#SVGID_4_)" fill="#6EC2EB" width="0.349" height="24.599"/>
		<rect x="72.739" y="69.134" clip-path="url(#SVGID_4_)" fill="#6DC2ED" width="0.348" height="24.599"/>
		<rect x="73.087" y="69.134" clip-path="url(#SVGID_4_)" fill="#70C3EC" width="1.044" height="24.599"/>
		<rect x="74.131" y="69.134" clip-path="url(#SVGID_4_)" fill="#71C4ED" width="0.696" height="24.599"/>
		<rect x="74.827" y="69.134" clip-path="url(#SVGID_4_)" fill="#72C5EE" width="1.044" height="24.599"/>
		<rect x="75.872" y="69.134" clip-path="url(#SVGID_4_)" fill="#73C6EF" width="1.044" height="24.599"/>
		<rect x="76.916" y="69.134" clip-path="url(#SVGID_4_)" fill="#74C7F1" width="0.695" height="24.599"/>
		<rect x="77.611" y="69.134" clip-path="url(#SVGID_4_)" fill="#75C8F2" width="0.696" height="24.599"/>
		<rect x="78.308" y="69.134" clip-path="url(#SVGID_4_)" fill="#78C8F2" width="0.349" height="24.599"/>
		<rect x="78.656" y="69.134" clip-path="url(#SVGID_4_)" fill="#76C9F3" width="0.695" height="24.599"/>
		<rect x="79.352" y="69.134" clip-path="url(#SVGID_4_)" fill="#7AC9F3" width="0.349" height="24.599"/>
		<rect x="79.701" y="69.134" clip-path="url(#SVGID_4_)" fill="#78CAF4" width="0.696" height="24.599"/>
		<rect x="80.396" y="69.134" clip-path="url(#SVGID_4_)" fill="#79CBF5" width="0.695" height="24.599"/>
		<rect x="81.092" y="69.134" clip-path="url(#SVGID_4_)" fill="#7ACBF3" width="0.349" height="24.599"/>
		<rect x="81.441" y="69.134" clip-path="url(#SVGID_4_)" fill="#7BCCF4" width="0.696" height="24.599"/>
		<rect x="82.137" y="69.134" clip-path="url(#SVGID_4_)" fill="#7DCDF5" width="0.696" height="24.599"/>
		<rect x="82.833" y="69.134" clip-path="url(#SVGID_4_)" fill="#80CDF6" width="0.348" height="24.599"/>
		<rect x="83.181" y="69.134" clip-path="url(#SVGID_4_)" fill="#7ECFF7" width="0.697" height="24.599"/>
		<rect x="83.878" y="69.134" clip-path="url(#SVGID_4_)" fill="#80CEF7" width="0.347" height="24.599"/>
		<rect x="84.225" y="69.134" clip-path="url(#SVGID_4_)" fill="#7FD0F8" width="0.696" height="24.599"/>
		<rect x="84.921" y="69.134" clip-path="url(#SVGID_4_)" fill="#80D1F9" width="0.697" height="24.599"/>
		<rect x="85.618" y="69.134" clip-path="url(#SVGID_4_)" fill="#82D0F9" width="0.347" height="24.599"/>
		<rect x="85.965" y="69.134" clip-path="url(#SVGID_4_)" fill="#80D1F9" width="0.348" height="24.599"/>
		<rect x="86.313" y="69.134" clip-path="url(#SVGID_4_)" fill="#83D1FA" width="0.349" height="24.599"/>
		<rect x="86.662" y="69.134" clip-path="url(#SVGID_4_)" fill="#82D2F8" width="0.348" height="24.599"/>
		<rect x="87.01" y="69.134" clip-path="url(#SVGID_4_)" fill="#83D1FA" width="0.349" height="24.599"/>
		<rect x="87.358" y="69.134" clip-path="url(#SVGID_4_)" fill="#84D2FB" width="0.348" height="24.599"/>
		<rect x="87.707" y="69.134" clip-path="url(#SVGID_4_)" fill="#83D3F9" width="0.347" height="24.599"/>
		<rect x="88.054" y="69.134" clip-path="url(#SVGID_4_)" fill="#84D2FB" width="0.697" height="24.599"/>
		<rect x="88.75" y="69.134" clip-path="url(#SVGID_4_)" fill="#87D4FA" width="0.348" height="24.599"/>
		<rect x="89.099" y="69.134" clip-path="url(#SVGID_4_)" fill="#85D4FC" width="0.348" height="24.599"/>
		<rect x="89.447" y="69.134" clip-path="url(#SVGID_4_)" fill="#88D5FC" width="0.696" height="24.599"/>
		<rect x="90.143" y="69.134" clip-path="url(#SVGID_4_)" fill="#86D5FD" width="0.348" height="24.599"/>
		<rect x="90.491" y="69.134" clip-path="url(#SVGID_4_)" fill="#89D6FD" width="0.757" height="24.599"/>
	</g>
	<g>
		<defs>
			
				<rect id="SVGID_5_" x="114.216" y="1.392" transform="matrix(-0.9986 0.0531 -0.0531 -0.9986 320.1521 27.0165)" width="91.003" height="32.735"/>
		</defs>
		<defs>
			<path id="SVGID_6_" d="M158.08,9.25c-0.377,3.38,1.983,6.412,5.266,6.777l0,0c3.289,0.364,6.254-2.08,6.628-5.46l0,0
				c0.374-3.38-1.983-6.412-5.269-6.777l0,0c-0.219-0.026-0.435-0.037-0.646-0.037l0,0C161.037,3.752,158.427,6.092,158.08,9.25
				 M142.644,9.631c-0.306,2.735,1.704,5.202,4.495,5.51l0,0c2.791,0.31,5.291-1.655,5.601-4.39l0,0
				c0.299-2.733-1.714-5.202-4.506-5.512l0,0c-0.192-0.022-0.385-0.032-0.574-0.032l0,0C145.11,5.208,142.923,7.087,142.644,9.631
				 M128.734,12.188c-0.25,2.238,1.356,4.253,3.576,4.499l0,0c2.225,0.245,4.23-1.367,4.48-3.605l0,0
				c0.246-2.237-1.356-4.249-3.584-4.497l0,0c-0.151-0.016-0.299-0.025-0.446-0.025l0,0C130.721,8.56,128.964,10.104,128.734,12.188
				 M175.291,15.213c-0.412,3.688,2.164,6.998,5.748,7.396l0,0c3.584,0.394,6.818-2.269,7.233-5.956l0,0
				c0.404-3.689-2.168-6.998-5.752-7.396l0,0c-0.238-0.024-0.476-0.039-0.707-0.039l0,0
				C178.521,9.218,175.668,11.771,175.291,15.213 M115.106,18.828c-0.211,1.922,1.205,3.659,3.161,3.875l0,0
				c1.957,0.216,3.721-1.166,3.933-3.091l0,0c0.21-1.923-1.205-3.658-3.162-3.876l0,0c-0.136-0.016-0.272-0.021-0.404-0.021l0,0
				C116.844,15.714,115.307,17.037,115.106,18.828 M189.556,23.25c-0.442,4.012,2.452,7.626,6.466,8.073l0,0
				c4.015,0.445,7.625-2.45,8.071-6.46l0,0c0.442-4.015-2.448-7.631-6.463-8.075l0,0c-0.271-0.03-0.543-0.045-0.812-0.045l0,0
				C193.141,16.743,189.972,19.509,189.556,23.25"/>
		</defs>
		<clipPath id="SVGID_7_">
			<use xlink:href="#SVGID_5_"  overflow="visible"/>
		</clipPath>
		<clipPath id="SVGID_8_" clip-path="url(#SVGID_7_)">
			<use xlink:href="#SVGID_6_"  overflow="visible"/>
		</clipPath>
		
			<rect x="98.607" y="19.419" transform="matrix(-0.0531 -0.9986 0.9986 -0.0531 101.0171 135.7888)" clip-path="url(#SVGID_8_)" fill="#B2B3B7" width="32.562" height="1.165"/>
		
			<rect x="99.36" y="19.789" transform="matrix(-0.0531 -0.9986 0.9986 -0.0531 101.8506 136.499)" clip-path="url(#SVGID_8_)" fill="#B1B2B6" width="32.562" height="0.344"/>
		
			<rect x="99.708" y="19.768" transform="matrix(-0.053 -0.9986 0.9986 -0.053 102.2227 136.825)" clip-path="url(#SVGID_8_)" fill="#B0B1B5" width="32.561" height="0.348"/>
		
			<rect x="100.226" y="19.569" transform="matrix(-0.0531 -0.9986 0.9986 -0.0531 102.8088 137.3147)" clip-path="url(#SVGID_8_)" fill="#AFB0B4" width="32.561" height="0.692"/>
		
			<rect x="100.745" y="19.714" transform="matrix(-0.0531 -0.9986 0.9986 -0.0531 103.3814 137.804)" clip-path="url(#SVGID_8_)" fill="#AEAFB2" width="32.561" height="0.348"/>
		
			<rect x="101.09" y="19.697" transform="matrix(-0.0531 -0.9986 0.9986 -0.0531 103.7641 138.1294)" clip-path="url(#SVGID_8_)" fill="#ACAEB1" width="32.562" height="0.345"/>
		
			<rect x="101.438" y="19.677" transform="matrix(-0.053 -0.9986 0.9986 -0.053 104.1377 138.4558)" clip-path="url(#SVGID_8_)" fill="#ADAEB0" width="32.561" height="0.348"/>
		
			<rect x="101.781" y="19.66" transform="matrix(-0.0531 -0.9986 0.9986 -0.0531 104.531 138.7804)" clip-path="url(#SVGID_8_)" fill="#ABADB0" width="32.562" height="0.344"/>
		
			<rect x="102.129" y="19.64" transform="matrix(-0.053 -0.9986 0.9986 -0.053 104.8986 139.1071)" clip-path="url(#SVGID_8_)" fill="#AAACAF" width="32.56" height="0.348"/>
		
			<rect x="102.646" y="19.44" transform="matrix(-0.0531 -0.9986 0.9986 -0.0531 105.4854 139.5965)" clip-path="url(#SVGID_8_)" fill="#A9ABAE" width="32.561" height="0.693"/>
		
			<rect x="103.168" y="19.585" transform="matrix(-0.053 -0.9986 0.9986 -0.053 106.0491 140.0868)" clip-path="url(#SVGID_8_)" fill="#A8AAAD" width="32.56" height="0.348"/>
		
			<rect x="103.511" y="19.568" transform="matrix(-0.0531 -0.9986 0.9986 -0.0531 106.4427 140.4116)" clip-path="url(#SVGID_8_)" fill="#A7A9AC" width="32.562" height="0.345"/>
		
			<rect x="103.859" y="19.548" transform="matrix(-0.053 -0.9986 0.9986 -0.053 106.8154 140.7383)" clip-path="url(#SVGID_8_)" fill="#A8A9AA" width="32.561" height="0.348"/>
		
			<rect x="104.204" y="19.529" transform="matrix(-0.0531 -0.9986 0.9986 -0.0531 107.2123 141.0646)" clip-path="url(#SVGID_8_)" fill="#A6A7AB" width="32.562" height="0.348"/>
		
			<rect x="104.55" y="19.513" transform="matrix(-0.0531 -0.9986 0.9986 -0.0531 107.5908 141.3911)" clip-path="url(#SVGID_8_)" fill="#A5A6AA" width="32.561" height="0.344"/>
		
			<rect x="104.897" y="19.493" transform="matrix(-0.053 -0.9986 0.9986 -0.053 107.9624 141.7164)" clip-path="url(#SVGID_8_)" fill="#A6A6A8" width="32.562" height="0.348"/>
		
			<rect x="105.241" y="19.476" transform="matrix(-0.0531 -0.9986 0.9986 -0.0531 108.3558 142.0423)" clip-path="url(#SVGID_8_)" fill="#A4A5A9" width="32.561" height="0.345"/>
		
			<rect x="105.762" y="19.273" transform="matrix(-0.053 -0.9986 0.9986 -0.053 108.921 142.532)" clip-path="url(#SVGID_8_)" fill="#A3A4A8" width="32.561" height="0.696"/>
		
			<rect x="106.279" y="19.421" transform="matrix(-0.0531 -0.9986 0.9986 -0.0531 109.5065 143.0207)" clip-path="url(#SVGID_8_)" fill="#A3A3A5" width="32.562" height="0.344"/>
		
			<rect x="106.628" y="19.401" transform="matrix(-0.053 -0.9986 0.9986 -0.053 109.874 143.3478)" clip-path="url(#SVGID_8_)" fill="#A2A3A7" width="32.56" height="0.349"/>
		
			<rect x="106.97" y="19.384" transform="matrix(-0.0531 -0.9986 0.9986 -0.0531 110.2727 143.6725)" clip-path="url(#SVGID_8_)" fill="#A1A2A6" width="32.562" height="0.344"/>
		
			<rect x="107.319" y="19.364" transform="matrix(-0.053 -0.9986 0.9986 -0.053 110.6387 143.999)" clip-path="url(#SVGID_8_)" fill="#A2A2A4" width="32.561" height="0.348"/>
		
			<rect x="107.664" y="19.345" transform="matrix(-0.0531 -0.9986 0.9986 -0.0531 111.0377 144.3256)" clip-path="url(#SVGID_8_)" fill="#A0A1A5" width="32.562" height="0.348"/>
		
			<rect x="108.01" y="19.329" transform="matrix(-0.0531 -0.9986 0.9986 -0.0531 111.4184 144.6519)" clip-path="url(#SVGID_8_)" fill="#9FA0A4" width="32.561" height="0.345"/>
		
			<rect x="108.355" y="19.309" transform="matrix(-0.0531 -0.9986 0.9986 -0.0531 111.804 144.9777)" clip-path="url(#SVGID_8_)" fill="#9FA0A2" width="32.561" height="0.348"/>
		
			<rect x="108.701" y="19.292" transform="matrix(-0.0531 -0.9986 0.9986 -0.0531 112.183 145.3032)" clip-path="url(#SVGID_8_)" fill="#9E9FA1" width="32.561" height="0.344"/>
		
			<rect x="109.048" y="19.272" transform="matrix(-0.053 -0.9986 0.9986 -0.053 112.5542 145.6293)" clip-path="url(#SVGID_8_)" fill="#9D9EA2" width="32.561" height="0.348"/>
		
			<rect x="109.392" y="19.256" transform="matrix(-0.0531 -0.9986 0.9986 -0.0531 112.9493 145.955)" clip-path="url(#SVGID_8_)" fill="#9C9DA1" width="32.561" height="0.344"/>
		
			<rect x="109.739" y="19.236" transform="matrix(-0.053 -0.9986 0.9986 -0.053 113.3193 146.2816)" clip-path="url(#SVGID_8_)" fill="#9C9D9F" width="32.561" height="0.348"/>
		
			<rect x="110.084" y="19.217" transform="matrix(-0.0531 -0.9986 0.9986 -0.0531 113.7139 146.6076)" clip-path="url(#SVGID_8_)" fill="#9B9C9F" width="32.563" height="0.348"/>
		
			<rect x="110.431" y="19.2" transform="matrix(-0.0531 -0.9986 0.9986 -0.0531 114.0963 146.9338)" clip-path="url(#SVGID_8_)" fill="#9A9B9E" width="32.561" height="0.345"/>
		
			<rect x="110.778" y="19.179" transform="matrix(-0.053 -0.9986 0.9986 -0.053 114.4695 147.2596)" clip-path="url(#SVGID_8_)" fill="#9A9B9D" width="32.562" height="0.348"/>
		
			<rect x="111.122" y="19.165" transform="matrix(-0.0531 -0.9986 0.9986 -0.0531 114.8624 147.5862)" clip-path="url(#SVGID_8_)" fill="#999A9C" width="32.56" height="0.344"/>
		
			<rect x="111.469" y="19.144" transform="matrix(-0.053 -0.9986 0.9986 -0.053 115.2295 147.9113)" clip-path="url(#SVGID_8_)" fill="#98999C" width="32.562" height="0.348"/>
		
			<rect x="111.815" y="19.125" transform="matrix(-0.0531 -0.9986 0.9986 -0.0531 115.6272 148.239)" clip-path="url(#SVGID_8_)" fill="#97989B" width="32.561" height="0.349"/>
		
			<rect x="112.16" y="19.108" transform="matrix(-0.0531 -0.9986 0.9986 -0.0531 116.0137 148.5643)" clip-path="url(#SVGID_8_)" fill="#97989A" width="32.562" height="0.344"/>
		
			<rect x="112.508" y="19.088" transform="matrix(-0.053 -0.9986 0.9986 -0.053 116.3805 148.8908)" clip-path="url(#SVGID_8_)" fill="#95979A" width="32.561" height="0.348"/>
		
			<rect x="112.851" y="19.071" transform="matrix(-0.0531 -0.9986 0.9986 -0.0531 116.7745 149.2153)" clip-path="url(#SVGID_8_)" fill="#949699" width="32.562" height="0.344"/>
		
			<rect x="113.2" y="19.051" transform="matrix(-0.053 -0.9986 0.9986 -0.053 117.1431 149.5423)" clip-path="url(#SVGID_8_)" fill="#959697" width="32.56" height="0.349"/>
		
			<rect x="113.544" y="19.033" transform="matrix(-0.0531 -0.9986 0.9986 -0.0531 117.5449 149.8687)" clip-path="url(#SVGID_8_)" fill="#949596" width="32.562" height="0.348"/>
		
			<rect x="113.89" y="19.016" transform="matrix(-0.0531 -0.9986 0.9986 -0.0531 117.9236 150.1948)" clip-path="url(#SVGID_8_)" fill="#929497" width="32.561" height="0.344"/>
		
			<rect x="114.238" y="18.997" transform="matrix(-0.053 -0.9986 0.9986 -0.053 118.2933 150.5215)" clip-path="url(#SVGID_8_)" fill="#939495" width="32.56" height="0.348"/>
		
			<rect x="114.581" y="18.98" transform="matrix(-0.0531 -0.9986 0.9986 -0.0531 118.6877 150.8467)" clip-path="url(#SVGID_8_)" fill="#929394" width="32.562" height="0.345"/>
		
			<rect x="114.929" y="18.959" transform="matrix(-0.053 -0.9986 0.9986 -0.053 119.0602 151.1725)" clip-path="url(#SVGID_8_)" fill="#909295" width="32.561" height="0.348"/>
		
			<rect x="115.275" y="18.941" transform="matrix(-0.0531 -0.9986 0.9986 -0.0531 119.455 151.4995)" clip-path="url(#SVGID_8_)" fill="#8F9194" width="32.561" height="0.348"/>
		
			<rect x="115.62" y="18.924" transform="matrix(-0.0531 -0.9986 0.9986 -0.0531 119.8391 151.8249)" clip-path="url(#SVGID_8_)" fill="#909192" width="32.561" height="0.344"/>
		
			<rect x="115.966" y="18.904" transform="matrix(-0.0531 -0.9986 0.9986 -0.0531 120.2192 152.1517)" clip-path="url(#SVGID_8_)" fill="#8F9091" width="32.56" height="0.349"/>
		
			<rect x="116.311" y="18.889" transform="matrix(-0.0531 -0.9986 0.9986 -0.0531 120.6045 152.4777)" clip-path="url(#SVGID_8_)" fill="#8D8F92" width="32.561" height="0.344"/>
		
			<rect x="116.659" y="18.867" transform="matrix(-0.053 -0.9986 0.9986 -0.053 120.9697 152.8032)" clip-path="url(#SVGID_8_)" fill="#8E8F90" width="32.562" height="0.348"/>
		
			<rect x="117.002" y="18.852" transform="matrix(-0.0531 -0.9986 0.9986 -0.0531 121.3674 153.1289)" clip-path="url(#SVGID_8_)" fill="#8D8E8F" width="32.561" height="0.344"/>
		
			<rect x="117.349" y="18.83" transform="matrix(-0.053 -0.9986 0.9986 -0.053 121.7345 153.4543)" clip-path="url(#SVGID_8_)" fill="#8B8D90" width="32.562" height="0.349"/>
		
			<rect x="117.695" y="18.813" transform="matrix(-0.0531 -0.9986 0.9986 -0.0531 122.136 153.7824)" clip-path="url(#SVGID_8_)" fill="#8C8D8E" width="32.561" height="0.348"/>
		
			<rect x="118.041" y="18.796" transform="matrix(-0.0531 -0.9986 0.9986 -0.0531 122.5151 154.1074)" clip-path="url(#SVGID_8_)" fill="#8B8C8D" width="32.562" height="0.344"/>
		
			<rect x="118.388" y="18.776" transform="matrix(-0.053 -0.9986 0.9986 -0.053 122.8848 154.4338)" clip-path="url(#SVGID_8_)" fill="#8A8A8C" width="32.561" height="0.348"/>
		
			<rect x="118.732" y="18.759" transform="matrix(-0.0531 -0.9986 0.9986 -0.0531 123.2798 154.759)" clip-path="url(#SVGID_8_)" fill="#898B8E" width="32.561" height="0.345"/>
		
			<rect x="119.08" y="18.739" transform="matrix(-0.053 -0.9986 0.9986 -0.053 123.6513 155.0856)" clip-path="url(#SVGID_8_)" fill="#89898B" width="32.56" height="0.348"/>
		
			<rect x="119.425" y="18.72" transform="matrix(-0.0531 -0.9986 0.9986 -0.0531 124.046 155.4121)" clip-path="url(#SVGID_8_)" fill="#88888A" width="32.562" height="0.348"/>
		
			<rect x="119.77" y="18.704" transform="matrix(-0.0531 -0.9986 0.9986 -0.0531 124.4282 155.7378)" clip-path="url(#SVGID_8_)" fill="#87898C" width="32.562" height="0.344"/>
		
			<rect x="120.118" y="18.683" transform="matrix(-0.053 -0.9986 0.9986 -0.053 124.7989 156.0637)" clip-path="url(#SVGID_8_)" fill="#878789" width="32.562" height="0.349"/>
		
			<rect x="120.635" y="18.484" transform="matrix(-0.0531 -0.9986 0.9986 -0.0531 125.3892 156.5531)" clip-path="url(#SVGID_8_)" fill="#868688" width="32.561" height="0.691"/>
		
			<rect x="121.155" y="18.629" transform="matrix(-0.0531 -0.9986 0.9986 -0.0531 125.9593 157.043)" clip-path="url(#SVGID_8_)" fill="#858587" width="32.561" height="0.348"/>
		
			<rect x="121.674" y="18.428" transform="matrix(-0.0531 -0.9986 0.9986 -0.0531 126.536 157.5321)" clip-path="url(#SVGID_8_)" fill="#848486" width="32.562" height="0.692"/>
		
			<rect x="122.192" y="18.576" transform="matrix(-0.0531 -0.9986 0.9986 -0.0531 127.1064 158.0203)" clip-path="url(#SVGID_8_)" fill="#828387" width="32.561" height="0.344"/>
		
			<rect x="122.713" y="18.372" transform="matrix(-0.053 -0.9986 0.9986 -0.053 127.6661 158.5104)" clip-path="url(#SVGID_8_)" fill="#828284" width="32.561" height="0.696"/>
		
			<rect x="123.23" y="18.52" transform="matrix(-0.0531 -0.9986 0.9986 -0.0531 128.2573 158.9992)" clip-path="url(#SVGID_8_)" fill="#818183" width="32.562" height="0.344"/>
		
			<rect x="123.576" y="18.5" transform="matrix(-0.0531 -0.9986 0.9986 -0.0531 128.6373 159.3255)" clip-path="url(#SVGID_8_)" fill="#808082" width="32.561" height="0.348"/>
		
			<rect x="124.095" y="18.3" transform="matrix(-0.0531 -0.9986 0.9986 -0.0531 129.2119 159.8145)" clip-path="url(#SVGID_8_)" fill="#808081" width="32.562" height="0.692"/>
		
			<rect x="124.612" y="18.446" transform="matrix(-0.0531 -0.9986 0.9986 -0.0531 129.7869 160.3016)" clip-path="url(#SVGID_8_)" fill="#7E7F82" width="32.562" height="0.344"/>
		
			<rect x="125.134" y="18.244" transform="matrix(-0.053 -0.9986 0.9986 -0.053 130.3457 160.7923)" clip-path="url(#SVGID_8_)" fill="#7E7E80" width="32.56" height="0.695"/>
		
			<rect x="125.651" y="18.391" transform="matrix(-0.0531 -0.9986 0.9986 -0.0531 130.9333 161.281)" clip-path="url(#SVGID_8_)" fill="#7D7D7F" width="32.562" height="0.345"/>
		
			<rect x="126.17" y="18.19" transform="matrix(-0.053 -0.9986 0.9986 -0.053 131.4943 161.7695)" clip-path="url(#SVGID_8_)" fill="#7C7C7E" width="32.561" height="0.692"/>
		
			<rect x="126.69" y="18.334" transform="matrix(-0.053 -0.9986 0.9986 -0.053 132.065 162.2584)" clip-path="url(#SVGID_8_)" fill="#7B7B7D" width="32.562" height="0.348"/>
		
			<rect x="127.036" y="18.316" transform="matrix(-0.0531 -0.9986 0.9986 -0.0531 132.4644 162.5862)" clip-path="url(#SVGID_8_)" fill="#7A7A7C" width="32.561" height="0.349"/>
		
			<rect x="127.554" y="18.116" transform="matrix(-0.0531 -0.9986 0.9986 -0.0531 133.0431 163.0753)" clip-path="url(#SVGID_8_)" fill="#79797B" width="32.562" height="0.692"/>
		
			<rect x="128.072" y="18.262" transform="matrix(-0.0531 -0.9986 0.9986 -0.0531 133.6116 163.5625)" clip-path="url(#SVGID_8_)" fill="#78787A" width="32.562" height="0.344"/>
		
			<rect x="128.42" y="18.242" transform="matrix(-0.053 -0.9986 0.9986 -0.053 133.9783 163.8896)" clip-path="url(#SVGID_8_)" fill="#777779" width="32.561" height="0.349"/>
		
			<rect x="128.765" y="18.224" transform="matrix(-0.0531 -0.9986 0.9986 -0.0531 134.3822 164.2164)" clip-path="url(#SVGID_8_)" fill="#767678" width="32.561" height="0.348"/>
		
			<rect x="129.285" y="18.024" transform="matrix(-0.0531 -0.9986 0.9986 -0.0531 134.953 164.7053)" clip-path="url(#SVGID_8_)" fill="#757577" width="32.561" height="0.692"/>
		
			<rect x="129.802" y="18.17" transform="matrix(-0.0531 -0.9986 0.9986 -0.0531 135.5252 165.1936)" clip-path="url(#SVGID_8_)" fill="#747476" width="32.561" height="0.345"/>
		
			<rect x="130.149" y="18.151" transform="matrix(-0.053 -0.9986 0.9986 -0.053 135.8958 165.5201)" clip-path="url(#SVGID_8_)" fill="#737475" width="32.561" height="0.348"/>
		
			<rect x="130.495" y="18.132" transform="matrix(-0.0531 -0.9986 0.9986 -0.0531 136.292 165.8466)" clip-path="url(#SVGID_8_)" fill="#717475" width="32.562" height="0.348"/>
		
			<rect x="130.841" y="18.116" transform="matrix(-0.0531 -0.9986 0.9986 -0.0531 136.6758 166.1728)" clip-path="url(#SVGID_8_)" fill="#727374" width="32.561" height="0.344"/>
		
			<rect x="131.188" y="18.095" transform="matrix(-0.053 -0.9986 0.9986 -0.053 137.0406 166.499)" clip-path="url(#SVGID_8_)" fill="#717273" width="32.562" height="0.349"/>
		
			<rect x="131.705" y="17.896" transform="matrix(-0.0531 -0.9986 0.9986 -0.0531 137.6348 166.9881)" clip-path="url(#SVGID_8_)" fill="#707172" width="32.562" height="0.692"/>
		
			<rect x="132.223" y="18.042" transform="matrix(-0.0531 -0.9986 0.9986 -0.0531 138.2052 167.4752)" clip-path="url(#SVGID_8_)" fill="#6F7071" width="32.562" height="0.344"/>
		
			<rect x="132.571" y="18.021" transform="matrix(-0.053 -0.9986 0.9986 -0.053 138.5698 167.802)" clip-path="url(#SVGID_8_)" fill="#6E6F70" width="32.561" height="0.349"/>
		
			<rect x="132.916" y="18.004" transform="matrix(-0.0531 -0.9986 0.9986 -0.0531 138.9737 168.1295)" clip-path="url(#SVGID_8_)" fill="#6C6F70" width="32.561" height="0.348"/>
		
			<rect x="133.261" y="17.987" transform="matrix(-0.0531 -0.9986 0.9986 -0.0531 139.3522 168.4546)" clip-path="url(#SVGID_8_)" fill="#6D6E6F" width="32.562" height="0.344"/>
		
			<rect x="133.609" y="17.967" transform="matrix(-0.053 -0.9986 0.9986 -0.053 139.7203 168.7812)" clip-path="url(#SVGID_8_)" fill="#6C6D6E" width="32.561" height="0.348"/>
		
			<rect x="134.126" y="17.767" transform="matrix(-0.0531 -0.9986 0.9986 -0.0531 140.3087 169.2698)" clip-path="url(#SVGID_8_)" fill="#6B6C6D" width="32.562" height="0.692"/>
		
			<rect x="134.645" y="17.911" transform="matrix(-0.0531 -0.9986 0.9986 -0.0531 140.8833 169.759)" clip-path="url(#SVGID_8_)" fill="#6A6B6C" width="32.562" height="0.348"/>
		
			<rect x="134.991" y="17.895" transform="matrix(-0.0531 -0.9986 0.9986 -0.0531 141.2654 170.085)" clip-path="url(#SVGID_8_)" fill="#696A6B" width="32.561" height="0.344"/>
		
			<rect x="135.339" y="17.874" transform="matrix(-0.053 -0.9986 0.9986 -0.053 141.6341 170.4115)" clip-path="url(#SVGID_8_)" fill="#676A6B" width="32.561" height="0.349"/>
		
			<rect x="135.683" y="17.858" transform="matrix(-0.0531 -0.9986 0.9986 -0.0531 142.0348 170.7366)" clip-path="url(#SVGID_8_)" fill="#68696A" width="32.561" height="0.344"/>
		
			<rect x="136.031" y="17.838" transform="matrix(-0.053 -0.9986 0.9986 -0.053 142.3958 171.0635)" clip-path="url(#SVGID_8_)" fill="#676869" width="32.56" height="0.348"/>
		
			<rect x="136.375" y="17.819" transform="matrix(-0.0531 -0.9986 0.9986 -0.0531 142.7966 171.3896)" clip-path="url(#SVGID_8_)" fill="#656869" width="32.562" height="0.348"/>
		
			<rect x="136.721" y="17.802" transform="matrix(-0.0531 -0.9986 0.9986 -0.0531 143.1815 171.7157)" clip-path="url(#SVGID_8_)" fill="#666768" width="32.561" height="0.345"/>
		
			<rect x="137.069" y="17.782" transform="matrix(-0.053 -0.9986 0.9986 -0.053 143.5499 172.0418)" clip-path="url(#SVGID_8_)" fill="#656668" width="32.561" height="0.348"/>
		
			<rect x="137.587" y="17.584" transform="matrix(-0.0531 -0.9986 0.9986 -0.0531 144.1357 172.5315)" clip-path="url(#SVGID_8_)" fill="#646567" width="32.56" height="0.692"/>
		
			<rect x="138.105" y="17.727" transform="matrix(-0.0531 -0.9986 0.9986 -0.0531 144.7124 173.0204)" clip-path="url(#SVGID_8_)" fill="#636466" width="32.562" height="0.348"/>
		
			<rect x="138.624" y="17.528" transform="matrix(-0.0531 -0.9986 0.9986 -0.0531 145.287 173.5096)" clip-path="url(#SVGID_8_)" fill="#626365" width="32.562" height="0.692"/>
		
			<rect x="139.142" y="17.674" transform="matrix(-0.0531 -0.9986 0.9986 -0.0531 145.8572 173.9976)" clip-path="url(#SVGID_8_)" fill="#616264" width="32.561" height="0.344"/>
		
			<rect x="139.49" y="17.654" transform="matrix(-0.053 -0.9986 0.9986 -0.053 146.2247 174.3244)" clip-path="url(#SVGID_8_)" fill="#616163" width="32.561" height="0.348"/>
		
			<rect x="139.833" y="17.637" transform="matrix(-0.0531 -0.9986 0.9986 -0.0531 146.6242 174.6488)" clip-path="url(#SVGID_8_)" fill="#5F6263" width="32.562" height="0.344"/>
		
			<rect x="140.181" y="17.618" transform="matrix(-0.053 -0.9986 0.9986 -0.053 146.989 174.9761)" clip-path="url(#SVGID_8_)" fill="#606062" width="32.561" height="0.348"/>
		
			<rect x="140.526" y="17.598" transform="matrix(-0.0531 -0.9986 0.9986 -0.0531 147.3882 175.3017)" clip-path="url(#SVGID_8_)" fill="#5F5F61" width="32.563" height="0.348"/>
		
			<rect x="141.046" y="17.398" transform="matrix(-0.0531 -0.9986 0.9986 -0.0531 147.9632 175.7917)" clip-path="url(#SVGID_8_)" fill="#5E5E60" width="32.561" height="0.693"/>
		
			<rect x="141.563" y="17.545" transform="matrix(-0.0531 -0.9986 0.9986 -0.0531 148.5378 176.2794)" clip-path="url(#SVGID_8_)" fill="#5D5D5F" width="32.561" height="0.344"/>
		
			<rect x="141.911" y="17.526" transform="matrix(-0.053 -0.9986 0.9986 -0.053 148.9 176.6066)" clip-path="url(#SVGID_8_)" fill="#5C5C5E" width="32.56" height="0.348"/>
		
			<rect x="142.256" y="17.507" transform="matrix(-0.0531 -0.9986 0.9986 -0.0531 149.3014 176.9333)" clip-path="url(#SVGID_8_)" fill="#5B5B5D" width="32.561" height="0.349"/>
		
			<rect x="142.602" y="17.491" transform="matrix(-0.0531 -0.9986 0.9986 -0.0531 149.688 177.2596)" clip-path="url(#SVGID_8_)" fill="#5A5A5C" width="32.561" height="0.344"/>
		
			<rect x="143.12" y="17.289" transform="matrix(-0.053 -0.9986 0.9986 -0.053 150.241 177.7473)" clip-path="url(#SVGID_8_)" fill="#595A5B" width="32.562" height="0.691"/>
		
			<rect x="143.64" y="17.433" transform="matrix(-0.053 -0.9986 0.9986 -0.053 150.8133 178.2369)" clip-path="url(#SVGID_8_)" fill="#58595A" width="32.562" height="0.349"/>
		
			<rect x="143.986" y="17.416" transform="matrix(-0.0531 -0.9986 0.9986 -0.0531 151.2193 178.564)" clip-path="url(#SVGID_8_)" fill="#575859" width="32.561" height="0.348"/>
		
			<rect x="144.505" y="17.215" transform="matrix(-0.0531 -0.9986 0.9986 -0.0531 151.7893 179.053)" clip-path="url(#SVGID_8_)" fill="#565758" width="32.562" height="0.692"/>
		
			<rect x="145.022" y="17.361" transform="matrix(-0.0531 -0.9986 0.9986 -0.0531 152.3619 179.5408)" clip-path="url(#SVGID_8_)" fill="#555657" width="32.562" height="0.345"/>
		
			<rect x="145.544" y="17.158" transform="matrix(-0.053 -0.9986 0.9986 -0.053 152.9237 180.0312)" clip-path="url(#SVGID_8_)" fill="#545556" width="32.561" height="0.696"/>
		
			<rect x="146.061" y="17.307" transform="matrix(-0.0531 -0.9986 0.9986 -0.0531 153.5132 180.5197)" clip-path="url(#SVGID_8_)" fill="#535456" width="32.561" height="0.344"/>
		
			<rect x="146.409" y="17.285" transform="matrix(-0.053 -0.9986 0.9986 -0.053 153.8763 180.8458)" clip-path="url(#SVGID_8_)" fill="#525355" width="32.562" height="0.349"/>
		
			<rect x="146.927" y="17.087" transform="matrix(-0.0531 -0.9986 0.9986 -0.0531 154.4725 181.3355)" clip-path="url(#SVGID_8_)" fill="#525254" width="32.56" height="0.692"/>
		
			<rect x="147.446" y="17.231" transform="matrix(-0.0531 -0.9986 0.9986 -0.0531 155.0442 181.8248)" clip-path="url(#SVGID_8_)" fill="#515153" width="32.561" height="0.348"/>
		
			<rect x="147.964" y="17.031" transform="matrix(-0.0531 -0.9986 0.9986 -0.0531 155.6165 182.3139)" clip-path="url(#SVGID_8_)" fill="#505052" width="32.563" height="0.692"/>
		
			<rect x="148.483" y="17.178" transform="matrix(-0.0531 -0.9986 0.9986 -0.0531 156.189 182.8022)" clip-path="url(#SVGID_8_)" fill="#4F4F51" width="32.561" height="0.344"/>
		
			<rect x="149.002" y="16.976" transform="matrix(-0.053 -0.9986 0.9986 -0.053 156.7465 183.2903)" clip-path="url(#SVGID_8_)" fill="#4D4D4F" width="32.561" height="0.692"/>
		
			<rect x="149.521" y="17.121" transform="matrix(-0.053 -0.9986 0.9986 -0.053 157.323 183.78)" clip-path="url(#SVGID_8_)" fill="#4C4D4E" width="32.56" height="0.348"/>
		
			<rect x="149.867" y="17.103" transform="matrix(-0.0531 -0.9986 0.9986 -0.0531 157.7201 184.1069)" clip-path="url(#SVGID_8_)" fill="#4B4C4D" width="32.561" height="0.348"/>
		
			<rect x="150.386" y="16.902" transform="matrix(-0.0531 -0.9986 0.9986 -0.0531 158.2947 184.5964)" clip-path="url(#SVGID_8_)" fill="#4A4B4C" width="32.562" height="0.693"/>
		
			<rect x="150.903" y="17.049" transform="matrix(-0.0531 -0.9986 0.9986 -0.0531 158.87 185.0836)" clip-path="url(#SVGID_8_)" fill="#494A4B" width="32.562" height="0.344"/>
		
			<rect x="151.425" y="16.846" transform="matrix(-0.053 -0.9986 0.9986 -0.053 159.4234 185.5747)" clip-path="url(#SVGID_8_)" fill="#48494A" width="32.56" height="0.696"/>
		
			<rect x="151.942" y="16.994" transform="matrix(-0.0531 -0.9986 0.9986 -0.0531 160.0185 186.0631)" clip-path="url(#SVGID_8_)" fill="#47484A" width="32.562" height="0.345"/>
		
			<rect x="152.461" y="16.792" transform="matrix(-0.053 -0.9986 0.9986 -0.053 160.5751 186.5513)" clip-path="url(#SVGID_8_)" fill="#474749" width="32.561" height="0.691"/>
		
			<rect x="152.981" y="16.936" transform="matrix(-0.053 -0.9986 0.9986 -0.053 161.145 187.0407)" clip-path="url(#SVGID_8_)" fill="#464648" width="32.562" height="0.349"/>
		
			<rect x="153.326" y="16.919" transform="matrix(-0.0531 -0.9986 0.9986 -0.0531 161.5518 187.3682)" clip-path="url(#SVGID_8_)" fill="#454547" width="32.561" height="0.348"/>
		
			<rect x="153.671" y="16.902" transform="matrix(-0.0531 -0.9986 0.9986 -0.0531 161.9321 187.6932)" clip-path="url(#SVGID_8_)" fill="#444446" width="32.562" height="0.344"/>
		
			<rect x="154.019" y="16.882" transform="matrix(-0.053 -0.9986 0.9986 -0.053 162.2956 188.0204)" clip-path="url(#SVGID_8_)" fill="#434445" width="32.561" height="0.348"/>
		
			<rect x="154.363" y="16.864" transform="matrix(-0.0531 -0.9986 0.9986 -0.0531 162.6945 188.3447)" clip-path="url(#SVGID_8_)" fill="#424344" width="32.562" height="0.345"/>
		
			<rect x="154.885" y="16.662" transform="matrix(-0.053 -0.9986 0.9986 -0.053 163.2555 188.8354)" clip-path="url(#SVGID_8_)" fill="#414243" width="32.56" height="0.696"/>
		
			<rect x="155.402" y="16.81" transform="matrix(-0.0531 -0.9986 0.9986 -0.0531 163.8457 189.3238)" clip-path="url(#SVGID_8_)" fill="#404142" width="32.561" height="0.344"/>
		
			<rect x="155.748" y="16.79" transform="matrix(-0.0531 -0.9986 0.9986 -0.0531 164.2254 189.6504)" clip-path="url(#SVGID_8_)" fill="#3F4041" width="32.561" height="0.349"/>
		
			<rect x="156.266" y="16.59" transform="matrix(-0.0531 -0.9986 0.9986 -0.0531 164.8049 190.1394)" clip-path="url(#SVGID_8_)" fill="#3E3F41" width="32.562" height="0.692"/>
		
			<rect x="156.784" y="16.736" transform="matrix(-0.0531 -0.9986 0.9986 -0.0531 165.375 190.6266)" clip-path="url(#SVGID_8_)" fill="#3E3E40" width="32.562" height="0.344"/>
		
			<rect x="157.305" y="16.532" transform="matrix(-0.053 -0.9986 0.9986 -0.053 165.9283 191.1172)" clip-path="url(#SVGID_8_)" fill="#3D3D3F" width="32.561" height="0.696"/>
		
			<rect x="157.997" y="16.498" transform="matrix(-0.0531 -0.9986 0.9986 -0.0531 166.7135 191.77)" clip-path="url(#SVGID_8_)" fill="#3B3C3D" width="32.561" height="0.692"/>
		
			<rect x="158.514" y="16.644" transform="matrix(-0.0531 -0.9986 0.9986 -0.0531 167.2861 192.2575)" clip-path="url(#SVGID_8_)" fill="#3A3B3C" width="32.562" height="0.345"/>
		
			<rect x="158.861" y="16.624" transform="matrix(-0.053 -0.9986 0.9986 -0.053 167.6542 192.5843)" clip-path="url(#SVGID_8_)" fill="#393A3B" width="32.561" height="0.348"/>
		
			<rect x="159.207" y="16.606" transform="matrix(-0.0531 -0.9986 0.9986 -0.0531 168.052 192.9114)" clip-path="url(#SVGID_8_)" fill="#38393A" width="32.561" height="0.348"/>
		
			<rect x="159.726" y="16.406" transform="matrix(-0.0531 -0.9986 0.9986 -0.0531 168.6269 193.4006)" clip-path="url(#SVGID_8_)" fill="#37383A" width="32.562" height="0.693"/>
		
			<rect x="160.243" y="16.552" transform="matrix(-0.0531 -0.9986 0.9986 -0.0531 169.2048 193.8876)" clip-path="url(#SVGID_8_)" fill="#373739" width="32.562" height="0.344"/>
		
			<rect x="160.592" y="16.533" transform="matrix(-0.053 -0.9986 0.9986 -0.053 169.5623 194.2152)" clip-path="url(#SVGID_8_)" fill="#363638" width="32.56" height="0.348"/>
		
			<rect x="160.936" y="16.513" transform="matrix(-0.0531 -0.9986 0.9986 -0.0531 169.966 194.541)" clip-path="url(#SVGID_8_)" fill="#353537" width="32.562" height="0.348"/>
		
			<rect x="161.282" y="16.497" transform="matrix(-0.0531 -0.9986 0.9986 -0.0531 170.3511 194.8673)" clip-path="url(#SVGID_8_)" fill="#343536" width="32.561" height="0.345"/>
		
			<rect x="161.63" y="16.477" transform="matrix(-0.053 -0.9986 0.9986 -0.053 170.7166 195.1942)" clip-path="url(#SVGID_8_)" fill="#333435" width="32.56" height="0.348"/>
		
			<rect x="161.974" y="16.461" transform="matrix(-0.0531 -0.9986 0.9986 -0.0531 171.1131 195.5185)" clip-path="url(#SVGID_8_)" fill="#343434" width="32.561" height="0.344"/>
		
			<rect x="162.321" y="16.44" transform="matrix(-0.053 -0.9986 0.9986 -0.053 171.4755 195.8456)" clip-path="url(#SVGID_8_)" fill="#323334" width="32.561" height="0.348"/>
		
			<rect x="162.666" y="16.422" transform="matrix(-0.0531 -0.9986 0.9986 -0.0531 171.8821 196.1717)" clip-path="url(#SVGID_8_)" fill="#313233" width="32.562" height="0.348"/>
		
			<rect x="163.186" y="16.222" transform="matrix(-0.0531 -0.9986 0.9986 -0.0531 172.4567 196.6612)" clip-path="url(#SVGID_8_)" fill="#313133" width="32.561" height="0.692"/>
		
			<rect x="163.877" y="16.186" transform="matrix(-0.0531 -0.9986 0.9986 -0.0531 173.2186 197.3132)" clip-path="url(#SVGID_8_)" fill="#2F2F31" width="32.561" height="0.692"/>
		
			<rect x="164.394" y="16.332" transform="matrix(-0.0531 -0.9986 0.9986 -0.0531 173.7936 197.8006)" clip-path="url(#SVGID_8_)" fill="#2F2F2F" width="32.562" height="0.344"/>
		
			<rect x="164.742" y="16.312" transform="matrix(-0.053 -0.9986 0.9986 -0.053 174.1563 198.1272)" clip-path="url(#SVGID_8_)" fill="#2D2E2F" width="32.561" height="0.348"/>
		
			<rect x="165.087" y="16.293" transform="matrix(-0.0531 -0.9986 0.9986 -0.0531 174.5571 198.4538)" clip-path="url(#SVGID_8_)" fill="#2C2D2E" width="32.562" height="0.348"/>
		
			<rect x="165.433" y="16.276" transform="matrix(-0.0531 -0.9986 0.9986 -0.0531 174.9396 198.7795)" clip-path="url(#SVGID_8_)" fill="#2D2D2D" width="32.562" height="0.345"/>
		
			<rect x="165.781" y="16.257" transform="matrix(-0.053 -0.9986 0.9986 -0.053 175.3074 199.1068)" clip-path="url(#SVGID_8_)" fill="#2C2C2E" width="32.561" height="0.348"/>
		
			<rect x="166.124" y="16.24" transform="matrix(-0.0531 -0.9986 0.9986 -0.0531 175.7073 199.4307)" clip-path="url(#SVGID_8_)" fill="#2B2B2D" width="32.562" height="0.344"/>
		
			<rect x="166.472" y="16.22" transform="matrix(-0.053 -0.9986 0.9986 -0.053 176.0667 199.758)" clip-path="url(#SVGID_8_)" fill="#2A2A2C" width="32.56" height="0.348"/>
		
			<rect x="166.817" y="16.2" transform="matrix(-0.0531 -0.9986 0.9986 -0.0531 176.4713 200.0839)" clip-path="url(#SVGID_8_)" fill="#2A2A2A" width="32.562" height="0.349"/>
		
			<rect x="167.163" y="16.185" transform="matrix(-0.0531 -0.9986 0.9986 -0.0531 176.8587 200.4103)" clip-path="url(#SVGID_8_)" fill="#28292A" width="32.561" height="0.344"/>
		
			<rect x="167.51" y="16.164" transform="matrix(-0.053 -0.9986 0.9986 -0.053 177.2187 200.7366)" clip-path="url(#SVGID_8_)" fill="#272829" width="32.562" height="0.348"/>
		
			<rect x="167.854" y="16.148" transform="matrix(-0.0531 -0.9986 0.9986 -0.0531 177.6176 201.0618)" clip-path="url(#SVGID_8_)" fill="#282828" width="32.561" height="0.344"/>
		
			<rect x="168.202" y="16.127" transform="matrix(-0.053 -0.9986 0.9986 -0.053 177.9801 201.3886)" clip-path="url(#SVGID_8_)" fill="#272729" width="32.561" height="0.349"/>
		
			<rect x="168.547" y="16.11" transform="matrix(-0.0531 -0.9986 0.9986 -0.0531 178.3897 201.7153)" clip-path="url(#SVGID_8_)" fill="#262628" width="32.56" height="0.348"/>
		
			<rect x="168.893" y="16.093" transform="matrix(-0.0531 -0.9986 0.9986 -0.0531 178.7668 202.0408)" clip-path="url(#SVGID_8_)" fill="#242526" width="32.562" height="0.344"/>
		
			<rect x="169.24" y="16.072" transform="matrix(-0.053 -0.9986 0.9986 -0.053 179.1317 202.367)" clip-path="url(#SVGID_8_)" fill="#252525" width="32.561" height="0.348"/>
		
			<rect x="169.584" y="16.056" transform="matrix(-0.0531 -0.9986 0.9986 -0.0531 179.5317 202.6924)" clip-path="url(#SVGID_8_)" fill="#232425" width="32.56" height="0.345"/>
		
			<rect x="169.931" y="16.036" transform="matrix(-0.053 -0.9986 0.9986 -0.053 179.8987 203.0192)" clip-path="url(#SVGID_8_)" fill="#232324" width="32.56" height="0.348"/>
		
			<rect x="170.277" y="16.018" transform="matrix(-0.0531 -0.9986 0.9986 -0.0531 180.2977 203.3462)" clip-path="url(#SVGID_8_)" fill="#232323" width="32.561" height="0.348"/>
		
			<rect x="170.622" y="16.001" transform="matrix(-0.0531 -0.9986 0.9986 -0.0531 180.6827 203.671)" clip-path="url(#SVGID_8_)" fill="#222224" width="32.562" height="0.344"/>
		
			<rect x="170.97" y="15.981" transform="matrix(-0.053 -0.9986 0.9986 -0.053 181.0419 203.9988)" clip-path="url(#SVGID_8_)" fill="#212123" width="32.561" height="0.349"/>
		
			<rect x="171.313" y="15.964" transform="matrix(-0.0531 -0.9986 0.9986 -0.0531 181.4502 204.3224)" clip-path="url(#SVGID_8_)" fill="#212121" width="32.562" height="0.344"/>
		
			<rect x="171.662" y="15.944" transform="matrix(-0.053 -0.9986 0.9986 -0.053 181.8066 204.6501)" clip-path="url(#SVGID_8_)" fill="#202020" width="32.56" height="0.348"/>
		
			<rect x="172.006" y="15.925" transform="matrix(-0.0531 -0.9986 0.9986 -0.0531 182.2142 204.9756)" clip-path="url(#SVGID_8_)" fill="#1F1F20" width="32.562" height="0.348"/>
		
			<rect x="172.353" y="15.909" transform="matrix(-0.0531 -0.9986 0.9986 -0.0531 182.594 205.302)" clip-path="url(#SVGID_8_)" fill="#1E1E20" width="32.561" height="0.345"/>
		
			<rect x="172.697" y="15.889" transform="matrix(-0.0531 -0.9986 0.9986 -0.0531 182.9815 205.6273)" clip-path="url(#SVGID_8_)" fill="#1D1D1D" width="32.562" height="0.348"/>
		
			<rect x="173.044" y="15.873" transform="matrix(-0.0531 -0.9986 0.9986 -0.0531 183.358 205.9541)" clip-path="url(#SVGID_8_)" fill="#1D1D1F" width="32.561" height="0.344"/>
		
			<rect x="173.39" y="15.852" transform="matrix(-0.053 -0.9986 0.9986 -0.053 183.7223 206.2801)" clip-path="url(#SVGID_8_)" fill="#1B1C1D" width="32.562" height="0.348"/>
		
			<rect x="173.735" y="15.835" transform="matrix(-0.0531 -0.9986 0.9986 -0.0531 184.1232 206.6047)" clip-path="url(#SVGID_8_)" fill="#1C1C1C" width="32.562" height="0.345"/>
		
			<rect x="174.082" y="15.814" transform="matrix(-0.053 -0.9986 0.9986 -0.053 184.4905 206.9308)" clip-path="url(#SVGID_8_)" fill="#1B1B1B" width="32.562" height="0.348"/>
		
			<rect x="174.428" y="15.797" transform="matrix(-0.0531 -0.9986 0.9986 -0.0531 184.8894 207.2586)" clip-path="url(#SVGID_8_)" fill="#1A1A1C" width="32.56" height="0.348"/>
		
			<rect x="174.773" y="15.78" transform="matrix(-0.0531 -0.9986 0.9986 -0.0531 185.2715 207.584)" clip-path="url(#SVGID_8_)" fill="#181A19" width="32.561" height="0.344"/>
		
			<rect x="175.121" y="15.76" transform="matrix(-0.053 -0.9986 0.9986 -0.053 185.636 207.911)" clip-path="url(#SVGID_8_)" fill="#191919" width="32.561" height="0.349"/>
		
			<rect x="175.465" y="15.744" transform="matrix(-0.0531 -0.9986 0.9986 -0.0531 186.0421 208.2355)" clip-path="url(#SVGID_8_)" fill="#181819" width="32.561" height="0.344"/>
		
			<rect x="175.812" y="15.723" transform="matrix(-0.053 -0.9986 0.9986 -0.053 186.3977 208.5623)" clip-path="url(#SVGID_8_)" fill="#171719" width="32.561" height="0.348"/>
		
			<rect x="176.157" y="15.705" transform="matrix(-0.0531 -0.9986 0.9986 -0.0531 186.8031 208.8884)" clip-path="url(#SVGID_8_)" fill="#161616" width="32.561" height="0.348"/>
		
			<rect x="176.503" y="15.688" transform="matrix(-0.0531 -0.9986 0.9986 -0.0531 187.1885 209.2144)" clip-path="url(#SVGID_8_)" fill="#161616" width="32.561" height="0.345"/>
		
			<rect x="176.851" y="15.668" transform="matrix(-0.053 -0.9986 0.9986 -0.053 187.552 209.5417)" clip-path="url(#SVGID_8_)" fill="#141516" width="32.561" height="0.348"/>
		
			<rect x="177.194" y="15.651" transform="matrix(-0.0531 -0.9986 0.9986 -0.0531 187.9501 209.8654)" clip-path="url(#SVGID_8_)" fill="#151515" width="32.562" height="0.344"/>
		
			<rect x="177.542" y="15.632" transform="matrix(-0.053 -0.9986 0.9986 -0.053 188.3107 210.1932)" clip-path="url(#SVGID_8_)" fill="#141414" width="32.56" height="0.348"/>
		
			<rect x="177.887" y="15.613" transform="matrix(-0.0531 -0.9986 0.9986 -0.0531 188.7189 210.5193)" clip-path="url(#SVGID_8_)" fill="#121315" width="32.562" height="0.348"/>
		
			<rect x="178.233" y="15.596" transform="matrix(-0.0531 -0.9986 0.9986 -0.0531 189.1015 210.845)" clip-path="url(#SVGID_8_)" fill="#111214" width="32.562" height="0.344"/>
		
			<rect x="178.58" y="15.576" transform="matrix(-0.053 -0.9986 0.9986 -0.053 189.4626 211.1715)" clip-path="url(#SVGID_8_)" fill="#121212" width="32.562" height="0.348"/>
		
			<rect x="178.924" y="15.56" transform="matrix(-0.0531 -0.9986 0.9986 -0.0531 189.8631 211.4966)" clip-path="url(#SVGID_8_)" fill="#111111" width="32.562" height="0.344"/>
		
			<rect x="179.271" y="15.539" transform="matrix(-0.053 -0.9986 0.9986 -0.053 190.2267 211.8234)" clip-path="url(#SVGID_8_)" fill="#0F1012" width="32.562" height="0.348"/>
		
			<rect x="179.617" y="15.521" transform="matrix(-0.0531 -0.9986 0.9986 -0.0531 190.6326 212.1502)" clip-path="url(#SVGID_8_)" fill="#101010" width="32.561" height="0.348"/>
		
			<rect x="179.962" y="15.504" transform="matrix(-0.0531 -0.9986 0.9986 -0.0531 191.0152 212.4751)" clip-path="url(#SVGID_8_)" fill="#0F0F0F" width="32.562" height="0.344"/>
		
			<rect x="180.48" y="15.303" transform="matrix(-0.0531 -0.9986 0.9986 -0.0531 191.5848 212.9634)" clip-path="url(#SVGID_8_)" fill="#0E0E0E" width="32.561" height="0.692"/>
		
			<rect x="181.001" y="15.448" transform="matrix(-0.053 -0.9986 0.9986 -0.053 192.1431 213.4541)" clip-path="url(#SVGID_8_)" fill="#0D0D0D" width="32.561" height="0.348"/>
		
			<rect x="181.693" y="15.064" transform="matrix(-0.0531 -0.9986 0.9986 -0.0531 192.929 214.106)" clip-path="url(#SVGID_8_)" fill="#0B0B0B" width="32.561" height="1.04"/>
		
			<rect x="182.384" y="15.376" transform="matrix(-0.0531 -0.9986 0.9986 -0.0531 193.6964 214.7575)" clip-path="url(#SVGID_8_)" fill="#0A0A0A" width="32.561" height="0.344"/>
		
			<rect x="183.077" y="14.991" transform="matrix(-0.053 -0.9986 0.9986 -0.053 194.4361 215.4106)" clip-path="url(#SVGID_8_)" fill="#090909" width="32.561" height="1.04"/>
		
			<rect x="183.939" y="15.119" transform="matrix(-0.0531 -0.9986 0.9986 -0.0531 195.4172 216.2243)" clip-path="url(#SVGID_8_)" fill="#070707" width="32.561" height="0.692"/>
		
			<rect x="184.461" y="15.264" transform="matrix(-0.053 -0.9986 0.9986 -0.053 195.9667 216.7148)" clip-path="url(#SVGID_8_)" fill="#060606" width="32.561" height="0.348"/>
		
			<rect x="185.152" y="14.881" transform="matrix(-0.0531 -0.9986 0.9986 -0.0531 196.7525 217.3672)" clip-path="url(#SVGID_8_)" fill="#040404" width="32.562" height="1.041"/>
		
			<rect x="185.842" y="15.192" transform="matrix(-0.0531 -0.9986 0.9986 -0.0531 197.52 218.0181)" clip-path="url(#SVGID_8_)" fill="#030303" width="32.562" height="0.344"/>
		
			<rect x="186.536" y="14.807" transform="matrix(-0.053 -0.9986 0.9986 -0.053 198.2595 218.6716)" clip-path="url(#SVGID_8_)" fill="#010101" width="32.561" height="1.041"/>
		
			<rect x="187.935" y="14.369" transform="matrix(-0.0531 -0.9986 0.9986 -0.0531 199.8351 219.9902)" clip-path="url(#SVGID_8_)" width="32.562" height="1.766"/>
	</g>
	<path d="M22.636,59.65c-0.03-0.306-0.082-0.555-0.153-0.755s-0.158-0.341-0.259-0.423c-0.102-0.083-0.224-0.129-0.366-0.129
		c-0.245,0-0.585,0.185-1.023,0.552c-0.438,0.366-0.978,0.774-1.618,1.223c-0.642,0.454-1.4,0.865-2.275,1.243
		c-0.875,0.377-1.894,0.566-3.054,0.566c-1.222,0-2.306-0.227-3.252-0.676c-0.947-0.45-1.746-1.138-2.397-2.059
		c-0.653-0.921-1.146-2.066-1.482-3.44c-0.336-1.372-0.503-2.969-0.503-4.789c0-3.645,0.646-6.424,1.939-8.34
		c1.292-1.916,3.15-2.875,5.573-2.875c1.181,0,2.203,0.173,3.069,0.519c0.865,0.346,1.604,0.728,2.214,1.147
		c0.611,0.417,1.115,0.801,1.512,1.146c0.396,0.346,0.748,0.519,1.052,0.519c0.265,0,0.489-0.162,0.673-0.486
		c0.184-0.326,0.274-0.896,0.274-1.712c0-0.377-0.01-0.692-0.03-0.943s-0.061-0.475-0.122-0.675
		c-0.061-0.199-0.137-0.372-0.229-0.519s-0.259-0.346-0.504-0.597c-0.244-0.251-0.636-0.555-1.175-0.911
		c-0.54-0.356-1.156-0.67-1.848-0.942c-0.692-0.272-1.451-0.492-2.275-0.66c-0.824-0.168-1.675-0.252-2.55-0.252
		c-1.812,0-3.496,0.31-5.054,0.927S5.86,37.875,4.71,39.152c-1.15,1.277-2.057,2.917-2.717,4.917C1.331,46.068,1,48.461,1,51.246
		c0,2.452,0.269,4.612,0.809,6.485c0.539,1.877,1.323,3.456,2.352,4.744c1.028,1.288,2.306,2.266,3.832,2.938
		c1.527,0.668,3.277,1.005,5.252,1.005c0.957,0,1.883-0.095,2.779-0.284c0.896-0.189,1.725-0.435,2.489-0.736
		c0.763-0.306,1.45-0.65,2.061-1.039c0.61-0.386,1.043-0.71,1.297-0.975c0.255-0.261,0.417-0.461,0.489-0.597
		c0.07-0.136,0.132-0.291,0.183-0.469c0.052-0.177,0.086-0.4,0.107-0.66c0.02-0.261,0.03-0.57,0.03-0.926
		C22.681,60.314,22.666,59.952,22.636,59.65L22.636,59.65z M53.589,44.209c-0.56-1.885-1.4-3.486-2.519-4.807
		c-1.12-1.319-2.519-2.324-4.199-3.015c-1.68-0.691-3.649-1.037-5.908-1.037c-2.342,0-4.388,0.389-6.138,1.163
		c-1.752,0.774-3.211,1.864-4.383,3.267c-1.171,1.404-2.046,3.074-2.626,5.011c-0.58,1.938-0.871,4.057-0.871,6.361
		c0,2.387,0.275,4.525,0.824,6.409c0.55,1.885,1.385,3.486,2.504,4.804c1.12,1.318,2.519,2.323,4.199,3.014
		c1.68,0.691,3.649,1.039,5.909,1.039c2.321,0,4.362-0.393,6.123-1.179c1.76-0.785,3.227-1.881,4.397-3.282
		c1.171-1.401,2.051-3.074,2.642-5.012c0.591-1.934,0.885-4.057,0.885-6.36C54.428,48.22,54.149,46.094,53.589,44.209L53.589,44.209
		z M48.714,55.423c-0.329,1.359-0.842,2.534-1.541,3.516c-0.699,0.986-1.592,1.752-2.681,2.297
		c-1.089,0.543-2.374,0.816-3.852,0.816c-1.624,0-2.979-0.299-4.067-0.896c-1.089-0.597-1.956-1.405-2.604-2.421
		c-0.646-1.011-1.108-2.202-1.386-3.565c-0.278-1.36-0.417-2.813-0.417-4.366c0-1.611,0.17-3.098,0.507-4.459
		c0.339-1.361,0.858-2.539,1.557-3.533c0.699-0.995,1.587-1.764,2.666-2.309s2.368-0.817,3.867-0.817
		c1.624,0,2.979,0.298,4.068,0.895c1.089,0.597,1.95,1.409,2.588,2.435c0.636,1.025,1.094,2.219,1.371,3.581
		c0.277,1.361,0.417,2.807,0.417,4.336C49.207,52.565,49.042,54.064,48.714,55.423L48.714,55.423z"/>
	<path d="M102.576,47.163c0-1.592-0.158-3.105-0.473-4.54s-0.845-2.686-1.588-3.753c-0.743-1.068-1.715-1.921-2.917-2.56
		c-1.202-0.639-2.687-0.958-4.458-0.958c-0.732,0-1.46,0.1-2.184,0.298c-0.722,0.199-1.465,0.519-2.229,0.958
		c-0.763,0.439-1.557,1.016-2.381,1.727c-0.824,0.713-1.695,1.582-2.611,2.607c-0.327-0.836-0.734-1.595-1.222-2.276
		c-0.489-0.681-1.079-1.267-1.771-1.759c-0.691-0.492-1.492-0.875-2.397-1.147c-0.906-0.272-1.929-0.408-3.069-0.408
		c-1.486,0-2.957,0.414-4.412,1.241c-1.456,0.827-2.959,2.131-4.505,3.911v-3.738c0-0.167-0.037-0.309-0.107-0.424
		c-0.072-0.115-0.189-0.22-0.351-0.314c-0.164-0.095-0.392-0.157-0.688-0.189c-0.294-0.031-0.667-0.046-1.114-0.046
		c-0.468,0-0.845,0.015-1.13,0.046c-0.285,0.033-0.52,0.095-0.702,0.189c-0.184,0.094-0.305,0.199-0.366,0.314
		s-0.092,0.257-0.092,0.424v28.271c0,0.166,0.036,0.309,0.107,0.422c0.071,0.117,0.204,0.215,0.397,0.299
		c0.192,0.083,0.452,0.147,0.778,0.188c0.326,0.042,0.734,0.064,1.222,0.064c0.509,0,0.926-0.022,1.252-0.064
		c0.325-0.042,0.58-0.105,0.764-0.188c0.183-0.083,0.315-0.182,0.396-0.299c0.081-0.113,0.123-0.256,0.123-0.422V45.277
		c1.383-1.779,2.666-3.13,3.847-4.051c1.181-0.922,2.352-1.382,3.512-1.382c0.936,0,1.746,0.189,2.428,0.565
		c0.682,0.377,1.248,0.922,1.695,1.634c0.447,0.712,0.783,1.56,1.007,2.544c0.225,0.983,0.337,2.072,0.337,3.266v17.183
		c0,0.166,0.036,0.309,0.106,0.422c0.072,0.117,0.204,0.215,0.398,0.299c0.192,0.083,0.458,0.147,0.794,0.188
		c0.335,0.042,0.737,0.064,1.206,0.064c0.489,0,0.896-0.022,1.221-0.064c0.326-0.042,0.585-0.105,0.778-0.188
		c0.194-0.083,0.332-0.182,0.413-0.299c0.081-0.113,0.122-0.256,0.122-0.422V45.277c1.405-1.779,2.693-3.13,3.864-4.051
		c1.17-0.922,2.335-1.382,3.497-1.382c0.936,0,1.75,0.189,2.442,0.565c0.692,0.377,1.263,0.922,1.71,1.634
		c0.448,0.712,0.773,1.56,0.977,2.544c0.204,0.983,0.307,2.072,0.307,3.266v17.183c0,0.166,0.04,0.309,0.121,0.422
		c0.082,0.117,0.219,0.215,0.413,0.299c0.193,0.083,0.453,0.147,0.778,0.188c0.326,0.042,0.743,0.064,1.253,0.064
		c0.489,0,0.896-0.022,1.222-0.064c0.326-0.042,0.581-0.105,0.763-0.188c0.184-0.083,0.316-0.182,0.397-0.299
		c0.081-0.113,0.122-0.256,0.122-0.422V47.163L102.576,47.163z"/>
	<path fill="#0176AB" d="M117.49,35.975v-6.69c0-0.193-0.06-0.322-0.125-0.451c-0.061-0.129-0.185-0.193-0.374-0.322
		c-0.188-0.064-0.438-0.129-0.812-0.192c-0.313-0.064-0.751-0.064-1.254-0.064c-0.499,0-0.876,0-1.186,0.064
		c-0.377,0.063-0.627,0.128-0.816,0.192c-0.185,0.128-0.31,0.193-0.374,0.322c-0.063,0.129-0.124,0.257-0.124,0.451v6.69h-3.815
		c-0.189,0-0.313,0.064-0.438,0.128c-0.188,0.064-0.252,0.192-0.377,0.387c-0.06,0.128-0.125,0.385-0.185,0.643
		c-0.063,0.256-0.063,0.643-0.063,1.029c0,0.707,0.063,1.286,0.249,1.608c0.189,0.321,0.438,0.514,0.752,0.514h3.879v16.465
		c0,1.673,0.124,3.09,0.438,4.249c0.313,1.22,0.751,2.251,1.438,3.022c0.624,0.771,1.5,1.352,2.501,1.737
		c1.001,0.385,2.25,0.578,3.689,0.578c0.438,0,0.94-0.064,1.379-0.064c0.499-0.064,0.936-0.193,1.375-0.256
		c0.377-0.129,0.751-0.192,1.065-0.385c0.374-0.129,0.623-0.322,0.748-0.45c0.189-0.196,0.314-0.453,0.377-0.839
		c0.061-0.32,0.125-0.77,0.125-1.416c0-0.385,0-0.706-0.064-0.963c-0.061-0.193-0.061-0.45-0.125-0.578
		c-0.061-0.128-0.125-0.257-0.25-0.257c-0.064-0.064-0.189-0.128-0.25-0.128c-0.188,0-0.377,0.064-0.562,0.193
		c-0.189,0.064-0.438,0.192-0.751,0.257c-0.25,0.128-0.627,0.192-0.937,0.321c-0.378,0.064-0.815,0.129-1.253,0.129
		c-1.5,0-2.501-0.514-3.063-1.481c-0.563-1.027-0.816-2.444-0.816-4.438V40.284h14.202V65.05c0,0.129,0.063,0.321,0.124,0.385
		c0.064,0.129,0.189,0.257,0.438,0.322c0.189,0.064,0.438,0.128,0.751,0.192s0.751,0.064,1.25,0.064c0.438,0,0.875,0,1.189-0.064
		c0.313-0.064,0.562-0.128,0.751-0.192c0.25-0.064,0.374-0.193,0.438-0.322c0.06-0.064,0.124-0.256,0.124-0.385V37.646
		c0-0.579-0.124-0.964-0.313-1.222c-0.25-0.321-0.688-0.45-1.25-0.45H117.49z M136.635,24.782c-0.438-0.45-1.254-0.643-2.44-0.643
		c-1.189,0-2.001,0.193-2.44,0.643c-0.438,0.45-0.691,1.286-0.691,2.508s0.253,1.995,0.691,2.444c0.438,0.451,1.25,0.644,2.44,0.644
		c1.186,0,2.002-0.193,2.44-0.644c0.434-0.449,0.687-1.286,0.687-2.507C137.322,26.003,137.069,25.232,136.635,24.782
		L136.635,24.782z M169.716,47.811c0-2.059-0.188-3.796-0.502-5.211c-0.309-1.415-0.873-2.702-1.688-3.731
		c-0.749-1.093-1.75-1.93-3.003-2.573c-1.25-0.643-2.814-0.965-4.627-0.965c-1.563,0-3.127,0.386-4.631,1.223
		c-1.563,0.835-3.066,2.187-4.63,3.923v-3.731c0-0.128,0-0.321-0.125-0.386c-0.06-0.128-0.185-0.257-0.313-0.321
		c-0.185-0.129-0.434-0.194-0.687-0.194c-0.314-0.064-0.688-0.064-1.126-0.064c-0.498,0-0.875,0-1.125,0.064
		c-0.313,0-0.562,0.064-0.751,0.194c-0.185,0.064-0.314,0.193-0.374,0.321c-0.064,0.064-0.064,0.258-0.064,0.386V65.05
		c0,0.129,0.064,0.321,0.125,0.385c0.064,0.129,0.189,0.257,0.377,0.322c0.189,0.064,0.438,0.128,0.812,0.192
		c0.313,0.064,0.688,0.064,1.189,0.064c0.499,0,0.938,0,1.25-0.064c0.374-0.064,0.627-0.128,0.812-0.192
		c0.189-0.064,0.313-0.193,0.377-0.322c0.061-0.064,0.125-0.256,0.125-0.385V45.301c1.375-1.802,2.689-3.151,3.939-4.117
		c1.254-0.901,2.504-1.351,3.754-1.351c1.001,0,1.813,0.192,2.565,0.579c0.751,0.386,1.378,0.901,1.812,1.607
		c0.503,0.708,0.816,1.544,1.065,2.573c0.25,0.965,0.374,2.252,0.374,3.86V65.05c0,0.129,0.064,0.321,0.128,0.385
		c0.061,0.129,0.185,0.257,0.375,0.322c0.189,0.064,0.438,0.128,0.812,0.192c0.314,0.064,0.752,0.064,1.25,0.064
		c0.502,0,0.876,0,1.189-0.064c0.378-0.064,0.627-0.128,0.812-0.192c0.189-0.064,0.313-0.193,0.378-0.322
		c0.061-0.064,0.124-0.256,0.124-0.385V47.811z M202.424,36.746c0-0.128-0.06-0.321-0.124-0.386
		c-0.125-0.128-0.25-0.257-0.438-0.321c-0.189-0.129-0.438-0.194-0.751-0.194c-0.31-0.064-0.748-0.064-1.186-0.064
		c-0.562,0-0.94,0-1.254,0.064c-0.31,0-0.563,0.064-0.812,0.194c-0.188,0.064-0.313,0.193-0.374,0.321
		c-0.064,0.064-0.125,0.258-0.125,0.386v19.747c-1.378,1.802-2.753,3.153-4.003,4.052c-1.254,0.967-2.504,1.417-3.754,1.417
		c-1.001,0-1.813-0.193-2.564-0.578s-1.378-0.967-1.813-1.609c-0.502-0.706-0.876-1.609-1.065-2.572
		c-0.249-0.967-0.374-2.315-0.374-3.988V36.746c0-0.128-0.064-0.321-0.128-0.386c-0.061-0.128-0.185-0.257-0.435-0.321
		c-0.188-0.129-0.438-0.194-0.751-0.194c-0.313-0.064-0.751-0.064-1.189-0.064c-0.498,0-0.937,0-1.25,0.064
		c-0.313,0-0.562,0.064-0.812,0.194c-0.189,0.064-0.313,0.193-0.378,0.321c-0.06,0.064-0.124,0.258-0.124,0.386V53.92
		c0,2.058,0.188,3.796,0.502,5.212c0.31,1.412,0.873,2.701,1.688,3.792c0.748,1.031,1.749,1.931,3.003,2.511
		c1.25,0.642,2.814,0.964,4.626,0.964c1.563,0,3.128-0.385,4.695-1.22c1.499-0.839,3.062-2.122,4.626-3.86v3.731
		c0,0.129,0,0.321,0.064,0.385c0.061,0.129,0.185,0.257,0.374,0.322s0.374,0.128,0.688,0.192c0.313,0.064,0.687,0.064,1.125,0.064
		c0.438,0,0.816,0,1.129-0.064c0.25-0.064,0.499-0.128,0.688-0.192c0.185-0.064,0.313-0.193,0.374-0.322
		c0.064-0.064,0.124-0.256,0.124-0.385V36.746z"/>
</g>
</svg>
